# xmcd
#
# Track frame offsets:
#	150
#	16725
#	29979
#	45847
#	64949
#	84501
#	98821
#	111644
#	125419
#	140717
#	154463
#	171310
#	184805
#	200189
#	214755
#	229314
#
# Disc length: 3290 seconds
#
# Revision: 1
# Processed by: cddbd v1.5.1PL0 Copyright (c) Steve Scherf et al.
# Submitted via: audiograbber 1.83.01
#
DISCID=f30cd810
DTITLE=Yaaw Kuk...Kuk - Medley Esarn - Vol.4
DYEAR=2005
DGENRE=Thai Country
TTITLE0=Koo larb daeng
TTITLE1=Num tah lon bon tee norn
TTITLE2=Rong hai sai duen
TTITLE3=Kwam ruk muen kwan bu ree
TTITLE4=Sao na kard ruk
TTITLE5=Tei e taen 
TTITLE6=Lum plern ja loern jai
TTITLE7=Sao ka la sin
TTITLE8=Num tah sao yeb pah 
TTITLE9=Ab ruk nong nuan 
TTITLE10=Sao na kon jon
TTITLE11=Won pee mee ruk deaw
TTITLE12=Pid luer tee pee jon
TTITLE13=Sin pee pee plien jai
TTITLE14=Buk song sao
TTITLE15=Tarn buk song sao
EXTD=
EXTT0=
EXTT1=
EXTT2=
EXTT3=
EXTT4=
EXTT5=
EXTT6=
EXTT7=
EXTT8=
EXTT9=
EXTT10=
EXTT11=
EXTT12=
EXTT13=
EXTT14=
EXTT15=
PLAYORDER=
